<?xml version="1.0" encoding="UTF-8"?>
<svg id="Layer_7" data-name="Layer 7" xmlns="http://www.w3.org/2000/svg" viewBox="0 0 369.5 369.5">
  <defs>
    <style>
      .cls-1 {
        fill: #231f20;
      }
    </style>
  </defs>
  <path class="cls-1" d="M299.78,146.56c-13.15-9.43-25.8-11.82-37.61-7.12-3.93,1.25-19.24,3.22-69.41,5.6-1.12-.01-1.76-.18-2.01-.29-.05-.26-.12-.97.2-2.34,8.55-34.19,12.04-40.33,12.95-41.41,6.04-5.32,8.2-12.26,6.24-20.08-.91-4.78-5.52-11.24-31.14-22.66l-.35-.14c-6.42-2.29-11.39-3.3-14.68-.78-5.01,3.6-1.46,10.85.15,13.96,5.89,16.91,5.25,41.09-1.9,71.91-1.68.92-4.85,1.95-10.7,2.12-8.93.2-24.33,1.4-45.68,3.55-22.43,1.9-41.35.97-56.22-2.77-7.47-2.43-10.76.08-12.22,2.62-2.54,4.44.71,9.44,4.6,14.19l.09.11c16.9,19.52,21.26,21.57,24.29,22.01l.35.05h.36c4.33,0,8.4-1.98,12.14-5.94,1.69-1.23,12.03-5.46,74.64-10.58.67-.06,1.18-.07,1.55-.05-.09.38-.24.89-.5,1.56-26.52,70.56-41.71,91.54-49.82,96.62-4.48,2.1-6.19,5.34-6.83,7.72-1.44,5.34.74,11.76,6.85,20.19,5.34,7.98,10.64,11.87,16.18,11.87,4.42,0,8.44-1.64,11.94-4.86l.27-.24.26-.35c1.11-1.19,8.19-5.85,52.88-16.19l.18-.05c32.91-8.91,41.11-8.82,43.07-8.41.95.7,4.72,4.32,15.21,22.26,6.16,11.16,12.4,14.34,17.5,14.34,1.78,0,3.43-.39,4.88-.96l.5-.23c3.82-2.01,8.3-6.48,7.97-16.36-.23-7.97-6.2-19.02-18.71-34.72-12.41-16.15-26.19-31.05-40.95-44.28-2.94-3.74-6.85-7.81-11.59-7.59-2.56.13-4.79,1.51-6.3,3.89-1.68,2.57-2.62,6.95,2.25,13.35,6,8.33,12.09,16.67,18.09,24.81.46.85.61,1.71.46,2.76-.13.5-.26.64-.75.77-24.57,3.51-47.3,6.87-67.58,9.99l-.22.04c-2.69.54-4.43.66-5.51.66.13-.26.29-.55.48-.89l.23-.44c14.72-32,27.17-62.38,37-90.28,1.65-4.68,4.65-6.68,10.02-6.68h.02c39.19-.2,71.23,1.76,95.23,5.83,6.03.96,10.58.62,13.93-1.05l.33-.17.3-.21c3.16-2.21,5.06-5.66,5.63-10.25l.03-.31c.31-4.93-2.55-9.66-8.56-14.1Z"/>
</svg>